<svg version="1.0" xmlns="http://www.w3.org/2000/svg"
 width="531.000000pt" height="565.000000pt" viewBox="0 0 531.000000 565.000000"
 preserveAspectRatio="xMidYMid meet">
<g transform="translate(0.000000,565.000000) scale(0.100000,-0.100000)"
fill="#4177d9" stroke="none">
<path d="M30 5072 c0 -4 11 -9 24 -10 13 -1 162 -29 331 -62 169 -34 310 -59
313 -56 3 4 -4 6 -16 6 -11 0 -24 5 -27 10 -4 6 -10 8 -15 5 -8 -5 -201 30
-230 42 -8 3 -26 7 -40 9 -33 3 -241 44 -260 51 -25 9 -80 13 -80 5z"/>
<path d="M720 4955 c-7 -8 -9 -26 -6 -42 4 -18 -20 -136 -70 -343 -42 -173
-98 -407 -125 -520 -27 -113 -51 -209 -52 -214 -2 -5 -32 36 -67 90 -35 55
-109 169 -165 254 -55 85 -114 176 -130 202 -29 46 -54 65 -41 31 4 -9 44 -73
90 -142 45 -69 98 -151 118 -181 19 -30 65 -101 102 -157 46 -71 65 -111 64
-130 -2 -14 2 -28 8 -30 6 -2 -4 -121 -28 -336 -21 -182 -36 -336 -35 -342 2
-5 -7 -15 -20 -22 -21 -11 -32 -8 -86 21 -34 18 -71 35 -82 38 -11 3 -29 9
-40 14 -17 7 -18 6 -7 -8 7 -9 24 -19 37 -22 13 -3 53 -20 89 -36 97 -45 97
-53 -15 -238 -83 -137 -90 -154 -81 -179 l10 -28 1 30 c1 19 32 81 86 169 46
77 86 143 87 146 2 4 15 10 29 13 21 5 38 -3 95 -51 238 -199 375 -311 386
-315 42 -15 -84 -77 -382 -191 -57 -21 -295 -119 -299 -123 -13 -10 13 -15 32
-5 12 6 163 68 335 136 238 95 320 124 341 120 25 -5 32 -15 50 -70 11 -35 25
-72 31 -82 5 -9 21 -46 35 -82 34 -87 30 -90 -121 -94 -143 -4 -663 -34 -684
-40 -33 -8 123 -4 455 13 193 10 353 16 357 14 7 -3 -80 -66 -192 -140 -19
-12 -39 -26 -45 -31 -47 -36 -146 -102 -153 -102 -6 0 -12 -4 -14 -9 -1 -5
-62 -48 -133 -97 -232 -158 -255 -175 -255 -185 0 -13 3 -11 135 81 61 42 181
126 268 186 87 60 211 146 275 192 70 49 125 81 137 80 16 -2 22 -16 32 -68 7
-36 17 -72 22 -80 4 -9 11 -31 15 -50 17 -85 39 -176 46 -185 5 -5 11 -28 15
-50 9 -50 34 -155 42 -175 10 -24 12 -32 24 -85 16 -73 16 -79 -3 -83 -9 -2
-223 36 -475 83 -516 98 -542 102 -528 87 6 -6 109 -29 230 -51 458 -85 543
-100 654 -118 67 -11 116 -24 119 -31 2 -7 -1 -12 -6 -12 -11 0 -287 -130
-385 -181 -31 -17 -57 -27 -57 -22 0 4 -4 3 -8 -3 -4 -7 -35 -25 -69 -42 -97
-47 -96 -48 -288 178 -91 107 -170 196 -176 198 -5 2 -9 -3 -9 -12 0 -9 4 -16
8 -16 13 0 332 -377 332 -393 0 -16 -20 -27 -48 -27 -23 -1 -121 -50 -100 -50
10 0 48 11 85 25 36 14 70 22 74 18 5 -5 2 -35 -6 -68 -18 -74 -18 -82 -4 -68
6 6 17 35 23 64 18 80 26 81 162 19 262 -118 296 -132 300 -128 2 3 -35 24
-83 48 -49 24 -109 54 -134 67 -26 13 -52 23 -58 23 -24 0 -141 55 -141 67 0
7 30 26 68 43 37 18 171 82 297 144 250 123 266 126 279 63 7 -36 109 -326
133 -377 9 -19 18 -30 20 -24 2 6 -30 106 -72 222 -41 115 -75 215 -75 222 0
7 22 -1 52 -18 121 -68 690 -354 694 -349 6 6 -9 15 -161 91 -319 162 -570
295 -573 305 -2 6 7 15 20 20 21 8 54 23 248 112 36 17 164 76 284 133 186 86
223 101 242 92 15 -7 22 -19 22 -41 0 -65 115 -670 129 -685 14 -13 15 -12 10
10 -28 127 -129 721 -124 726 3 4 46 -10 94 -29 422 -171 587 -237 640 -257
34 -13 64 -31 66 -40 4 -15 -69 -77 -437 -372 -11 -10 -17 -18 -12 -18 12 0
81 47 111 75 12 11 39 34 60 50 21 17 68 55 104 85 36 31 82 67 101 82 19 14
45 36 58 48 43 40 62 25 94 -75 16 -49 33 -94 39 -100 5 -5 9 -18 9 -30 0 -24
25 -63 34 -54 4 3 -17 65 -45 138 -28 72 -48 138 -45 146 7 19 33 18 116 -1
36 -8 106 -21 155 -29 50 -8 113 -19 140 -25 28 -6 64 -13 80 -16 208 -36 268
-45 280 -41 14 6 29 -19 20 -33 -9 -14 34 -18 45 -4 19 22 7 49 -20 49 -14 0
-90 39 -170 86 -325 193 -423 249 -431 249 -5 0 -9 4 -9 9 0 5 -11 12 -24 15
-14 3 -26 16 -30 30 -13 52 -80 40 -70 -12 6 -33 -84 -192 -115 -204 -15 -5
-28 3 -57 40 -21 26 -76 91 -122 145 -46 54 -83 100 -81 101 2 2 76 -12 164
-30 175 -36 195 -39 195 -24 0 6 -12 10 -27 10 -16 1 -55 7 -87 15 -33 8 -63
12 -67 9 -4 -2 -10 0 -13 5 -5 8 -67 21 -129 27 -16 1 -36 12 -44 24 -14 20
-16 21 -35 3 -18 -16 -41 -17 -266 -14 -232 3 -247 4 -260 23 -8 10 -20 17
-27 14 -9 -3 -31 27 -65 90 -28 52 -50 99 -48 103 2 5 140 -43 307 -106 167
-63 306 -111 309 -108 9 8 -19 25 -41 25 -10 0 -34 7 -55 17 -20 9 -39 17 -42
18 -3 1 -22 9 -42 18 -21 10 -42 17 -47 17 -5 0 -20 4 -33 9 -13 5 -27 10 -33
11 -5 1 -19 9 -30 16 -11 8 -27 14 -37 14 -10 0 -46 13 -80 28 -35 16 -76 32
-93 35 -52 10 -85 26 -85 42 0 8 -6 16 -12 16 -7 1 -19 2 -25 3 -7 0 -45 37
-85 81 -39 44 -123 136 -187 203 -78 83 -118 134 -123 155 -6 25 13 99 83 330
49 164 96 309 105 321 12 20 13 26 1 37 -12 13 -37 93 -57 184 -5 22 -18 74
-30 115 -36 126 -41 153 -35 191 5 30 3 39 -12 47 -22 12 -53 -2 -53 -22 0 -9
-27 -20 -76 -31 -41 -9 -108 -28 -147 -42 -40 -13 -82 -26 -95 -29 -54 -11
-182 -56 -182 -64 0 -9 26 -2 312 84 135 41 193 54 205 48 11 -7 36 -82 79
-243 34 -129 61 -235 60 -236 -5 -5 -661 330 -672 344 -20 26 -20 501 0 509 7
3 124 -70 260 -161 136 -92 250 -164 253 -161 8 8 13 4 -97 76 -52 35 -96 67
-98 72 -2 4 -8 8 -13 8 -5 0 -70 40 -143 89 -111 74 -134 95 -139 119 -4 22
-14 33 -37 40 -16 6 -30 16 -30 22 0 6 -28 88 -61 183 -34 95 -73 204 -86 242
-13 39 -30 84 -38 102 -8 17 -15 36 -15 41 0 6 -13 43 -29 84 -19 48 -28 83
-24 102 8 39 -23 60 -47 31z m96 -255 c20 -58 42 -118 49 -135 7 -16 21 -55
30 -86 8 -32 25 -75 35 -97 11 -23 20 -47 20 -54 0 -7 16 -50 34 -95 19 -46
31 -85 26 -88 -5 -3 -11 -18 -14 -33 -5 -21 -21 -35 -69 -60 -35 -17 -68 -32
-74 -32 -6 0 -13 -4 -15 -9 -1 -5 -30 -22 -63 -39 -134 -67 -241 -125 -255
-139 -17 -17 150 66 342 170 90 48 133 67 148 62 19 -6 20 -13 20 -249 0 -133
-2 -245 -5 -248 -3 -3 -31 7 -63 23 -31 15 -82 39 -112 53 -30 14 -82 37 -115
52 -33 15 -63 29 -67 30 -5 1 -10 3 -13 4 -3 1 -8 3 -12 4 -5 1 -34 14 -65 29
-31 15 -61 27 -66 27 -30 0 -17 73 92 523 63 260 120 498 127 531 l13 58 17
-48 c10 -27 34 -96 55 -154z m239 -610 c0 -22 -29 -18 -33 3 -3 14 1 18 15 15
10 -2 18 -10 18 -18z m-361 -396 c105 -48 219 -99 254 -115 34 -15 62 -32 62
-38 0 -5 -15 -20 -32 -33 -18 -12 -78 -58 -133 -101 -55 -44 -113 -90 -130
-103 -36 -27 -196 -153 -244 -192 -46 -37 -59 -44 -65 -34 -4 8 61 659 70 690
2 6 9 12 15 12 7 0 98 -39 203 -86z m1016 -484 c7 0 10 -8 8 -17 -3 -15 -38
-43 -188 -147 -86 -60 -438 -312 -518 -371 -38 -28 -67 -44 -73 -38 -5 5 -3
51 6 113 21 139 40 289 55 430 7 63 16 125 21 136 4 12 11 61 14 110 4 49 12
92 17 95 6 4 154 -65 329 -152 175 -88 323 -159 329 -159z m-680 308 c0 -2
-12 -86 -26 -188 -14 -102 -27 -201 -29 -220 -2 -19 -16 -133 -31 -252 -23
-177 -31 -217 -44 -221 -10 -2 -45 20 -86 55 -38 32 -140 116 -226 186 -196
159 -196 158 -75 249 45 34 176 136 292 227 183 144 226 175 225 164z m631
-594 c-38 -126 -79 -261 -91 -301 -14 -47 -28 -74 -39 -78 -16 -5 -111 4 -416
40 -71 8 -136 15 -142 15 -7 0 -13 4 -13 9 0 5 106 85 236 178 130 92 286 204
348 248 62 44 128 92 147 107 19 15 35 24 37 19 1 -4 -29 -111 -67 -237z
m-1261 112 c0 -8 -4 -18 -10 -21 -5 -3 -10 3 -10 14 0 12 5 21 10 21 6 0 10
-6 10 -14z m535 -436 c9 -15 -3 -30 -20 -24 -7 3 -11 12 -8 20 6 16 19 18 28
4z m233 -40 c81 -10 195 -24 255 -31 l107 -12 0 -32 c0 -17 -6 -39 -13 -49
-13 -18 -25 -15 -233 52 -120 39 -237 73 -259 76 -22 3 10 -10 70 -31 61 -20
119 -39 130 -44 29 -11 205 -65 238 -73 15 -4 27 -10 27 -14 0 -4 -85 -37
-189 -75 -137 -49 -196 -66 -217 -61 -27 5 -33 16 -84 146 -30 77 -55 145 -55
151 0 12 53 27 68 19 5 -2 75 -12 155 -22z m409 -74 c4 -8 65 -74 134 -148
158 -168 210 -226 184 -207 -147 104 -337 256 -347 277 -9 19 -10 36 -3 60 10
35 19 40 32 18z m-100 -112 c-4 -4 -26 -21 -51 -38 -24 -17 -71 -52 -103 -77
-33 -25 -75 -49 -94 -52 -36 -7 -115 12 -118 28 -2 5 26 19 61 31 89 31 217
78 258 97 37 16 57 21 47 11z m127 -44 c32 -25 68 -52 80 -60 11 -8 67 -50
124 -92 57 -43 112 -83 123 -89 12 -6 19 -13 16 -15 -7 -8 -198 25 -224 38
-11 6 -26 7 -32 3 -7 -4 -18 -1 -26 5 -8 7 -21 10 -28 7 -7 -3 -71 6 -143 19
-142 26 -166 30 -207 32 -16 1 -27 6 -25 12 7 20 244 188 263 187 11 -1 46
-22 79 -47z m-389 -164 c13 -38 13 -44 19 -193 4 -82 9 -177 11 -213 19 -284
24 -289 -74 90 -59 225 -86 348 -80 356 15 19 116 -14 124 -40z m392 -53 c191
-32 343 -63 343 -68 0 -6 -35 -42 -77 -80 -42 -39 -83 -77 -92 -86 -9 -8 -79
-74 -156 -145 -291 -268 -308 -285 -301 -292 4 -4 197 166 226 199 3 3 77 72
165 154 88 82 180 168 205 192 25 23 50 43 57 43 6 0 35 -46 63 -103 44 -89
50 -106 41 -130 -6 -16 -18 -27 -29 -27 -10 0 -22 -4 -27 -9 -6 -5 -91 -46
-190 -91 -99 -45 -250 -116 -335 -157 -85 -42 -170 -77 -187 -80 l-33 -3 -1
57 c0 32 -8 195 -18 363 -10 168 -16 308 -14 313 6 10 -15 13 360 -50z m1061
-344 c2 -5 12 -9 21 -9 23 0 105 -96 95 -112 -4 -6 -3 -8 3 -5 6 4 46 -35 89
-85 43 -51 72 -89 64 -86 -76 29 -334 134 -368 150 -24 10 -96 39 -160 64 -65
24 -136 53 -160 64 -23 11 -51 20 -62 20 -11 0 -20 3 -20 8 0 10 494 2 498 -9z
m642 -180 c177 -105 212 -125 320 -185 47 -26 87 -50 90 -54 3 -3 20 -12 38
-19 18 -8 31 -16 28 -18 -3 -3 -174 26 -381 63 -412 75 -416 76 -377 132 10
15 34 56 52 91 29 54 61 85 80 78 3 -1 70 -41 150 -88z m-315 -160 c-3 -4 -12
-6 -20 -3 -8 4 -13 10 -10 15 3 4 12 6 20 3 8 -4 13 -10 10 -15z"/>
<path d="M330 3778 c-76 -23 -120 -34 -174 -45 -22 -4 -41 -13 -43 -20 -3 -7
53 3 149 28 84 23 154 42 156 44 2 1 -3 5 -10 7 -7 3 -42 -3 -78 -14z"/>
<path d="M419 3757 c-8 -8 -59 -63 -114 -123 -55 -60 -120 -130 -144 -156 -24
-27 -41 -51 -37 -55 3 -4 12 0 20 8 7 8 41 46 76 84 35 39 82 90 105 115 94
103 118 131 113 136 -3 3 -12 -1 -19 -9z"/>
<path d="M150 3102 c0 -4 14 -13 30 -19 17 -6 30 -10 30 -7 0 2 -13 10 -30 19
-16 9 -30 12 -30 7z"/>
<path d="M724 2182 c5 -9 53 -8 63 1 3 4 -10 7 -31 7 -20 0 -35 -4 -32 -8z"/>
<path d="M503 2173 c4 -3 23 -6 42 -6 19 0 38 3 42 6 3 4 -15 7 -42 7 -27 0
-45 -3 -42 -7z"/>
<path d="M3031 1405 c31 -31 350 -248 356 -242 2 3 -21 22 -52 43 -30 22 -111
78 -180 127 -117 82 -159 106 -124 72z"/>
</g>
</svg>
